<?xml version="1.0" encoding="utf-8"?>
<!-- Generator: Adobe Illustrator 16.0.0, SVG Export Plug-In . SVG Version: 6.00 Build 0)  -->
<!DOCTYPE svg PUBLIC "-//W3C//DTD SVG 1.1//EN" "http://www.w3.org/Graphics/SVG/1.1/DTD/svg11.dtd">
<svg version="1.1" id="Layer_1" xmlns="http://www.w3.org/2000/svg" xmlns:xlink="http://www.w3.org/1999/xlink" x="0px" y="0px"
	 width="641px" height="542.141px" viewBox="66.445 53.14 641 542.141" enable-background="new 66.445 53.14 641 542.141"
	 xml:space="preserve">
<g>
	<path d="M649.648,234.864l-34.764,34.764l-71.434-71.434l35.717-35.717c8.096-8.096,23.335-8.096,32.383,0l40.003,40.003
		C658.697,211.529,658.697,225.815,649.648,234.864z"/>
	<path d="M283.432,459.166c30.002,15.239,55.242,40.003,70.481,69.528l0,0l-80.482,22.383c-7.143,1.905-13.811-4.286-11.905-11.43
		L283.432,459.166z M372.486,512.026c-16.191-30.002-41.432-56.194-71.434-71.434l225.254-224.777l71.434,71.434L372.486,512.026z"
		/>
</g>
</svg>
