<?xml version="1.0" encoding="utf-8"?>
<!-- Generator: Adobe Illustrator 22.1.0, SVG Export Plug-In . SVG Version: 6.00 Build 0)  -->
<svg version="1.1" id="Layer_1" xmlns="http://www.w3.org/2000/svg" xmlns:xlink="http://www.w3.org/1999/xlink" x="0px" y="0px"
	 viewBox="0 0 61.2 61.2" style="enable-background:new 0 0 61.2 61.2;" xml:space="preserve">
<style type="text/css">
	.st0{fill:#729F98;}
	.st1{fill:#FFFFFF;}
</style>
<circle class="st0" cx="30.6" cy="30.6" r="30.6"/>
<g>
	<g>
		<path class="st1" d="M42.5,31.5c2.7,0,4.6,1.5,7,2.8c2.2,0.9,5.2,0.5,5.2,0.5l-1.9,3.3c0,0-3-0.6-6.6,0.9c-3.2,1.3-6.2,1.5-7,1.4
			c-1,0.1-3.3-0.1-4.7-2.8c-0.9-2.6-0.9-7-0.9-7v-2.8c0,0-0.5,3.2-1.4,6.6c-0.9,1.8-1.2,2.8-2.3,4.2c-1.4,1.6-3.3,2.7-5.2,3.3
			c-3.2,0.8-6.6,0.5-6.6,0.5s3.7-1.2,6.1-2.8c2.4-1.5,5.3-3.3,7-7.5c1.6-4.4,1.9-9.5,2.3-10.3c0.8-0.6,1.3,1.7,1.4,2.8
			c0,1.3,0.5,7.5,0.5,7.5s0.2,4.7,1.9,5.6c1.5,0.5,5,0.3,7-0.5c2.1-0.5,2.3-0.9,2.3-0.9s-4-2.4-6.1-1.4c-1.9,0.8-2.7,1.8-2.8,1.9
			C37.9,36.6,39.6,31.5,42.5,31.5L42.5,31.5L42.5,31.5z M21.4,24c0,0-0.6,3.8,1.4,4.7c2,1.1,2.9,0.9,3.8,2.3c1.1,1,2.3,4.2,2.3,4.2
			s0.5-3.1-0.9-6.1C26.4,26.5,21.4,24,21.4,24L21.4,24L21.4,24z M17.4,20.8l1.9-2.3c0,0,0.3,1.3,0.7,2c0.4,0.7,1.1,1.3,1.1,1.3
			s-0.9,1.4-0.9,2.9c0,1.5,1.3,6,1.3,8.4c0,0,0.1,1.4-0.1,4c0,0,0,1.3-1.6,3.5c0,0-2,2.4-6.1,2.4c0,0-3.1-0.2-4.7-1.9
			c0,0-1-0.8-1.2-2.8c0,0,0-1,0.4-2.3c0,0,0.6-1.4,1.8-3.3c0,0-1.8,3.4-1,5.3c0.8,2,3.3,2.4,4.7,2.4s3.2-0.5,4.6-1.5
			c1.6-1.2,1.5-4,1.5-5.7c0-1.7-0.8-6-0.8-6c-0.2-1.2-1-3.7-1.1-4.4C17.8,22,17.4,20.8,17.4,20.8L17.4,20.8L17.4,20.8z"/>
	</g>
</g>
</svg>
