<?xml version="1.0" encoding="utf-8"?>
<!-- Generator: Adobe Illustrator 16.0.0, SVG Export Plug-In . SVG Version: 6.00 Build 0)  -->
<!DOCTYPE svg PUBLIC "-//W3C//DTD SVG 1.1//EN" "http://www.w3.org/Graphics/SVG/1.1/DTD/svg11.dtd">
<svg version="1.1" id="Layer_1" xmlns="http://www.w3.org/2000/svg" xmlns:xlink="http://www.w3.org/1999/xlink" x="0px" y="0px"
	 width="841.889px" height="595.281px" viewBox="0 0 841.889 595.281" enable-background="new 0 0 841.889 595.281"
	 xml:space="preserve">
<title>id</title>
<g>
	<path fill="#161616" d="M603.668,57.117L603.668,57.117 M560.504,9.927c-22.09-0.114-40.649,16.577-42.876,38.558l-48.917,489.179
		c-2.384,23.839,15.009,45.097,38.847,47.479c23.839,2.385,45.095-15.009,47.478-38.847l0,0l48.923-489.179
		c2.385-23.559-14.775-44.592-38.335-46.98C563.922,9.965,562.212,9.895,560.504,9.927z"/>
	<path fill="#161616" d="M373.465,57.117L373.465,57.117 M330.303,9.927c-22.09-0.114-40.651,16.577-42.875,38.558L238.51,537.664
		c-2.383,23.839,15.009,45.097,38.846,47.479c23.84,2.385,45.098-15.009,47.48-38.847l48.917-489.179
		c2.389-23.559-14.772-44.592-38.332-46.98C333.72,9.965,332.011,9.895,330.303,9.927z"/>
	<path fill="#161616" d="M651.435,125.027H219.806c-23.676-0.319-43.127,18.618-43.447,42.294c-0.002,0.195-0.002,0.387-0.002,0.583
		l0,0c-0.318,23.676,18.618,43.127,42.294,43.444c0.195,0.002,0.388,0.005,0.582,0.005h431.626
		c23.677,0.315,43.128-18.619,43.447-42.297c0.002-0.192,0.002-0.385,0.002-0.579l0,0c0.319-23.676-18.618-43.127-42.293-43.446
		C651.82,125.027,651.627,125.027,651.435,125.027z"/>
	<path fill="#161616" d="M622.659,384.004H191.031c-23.676-0.316-43.128,18.617-43.447,42.297c-0.002,0.192-0.002,0.387-0.002,0.578
		l0,0c-0.319,23.677,18.618,43.129,42.294,43.446c0.194,0.002,0.387,0.002,0.582,0.002h431.625
		c23.678,0.321,43.129-18.618,43.447-42.293c0.002-0.194,0.002-0.386,0.002-0.58l0,0c0.319-23.678-18.617-43.129-42.294-43.445
		C623.044,384.006,622.852,384.004,622.659,384.004z"/>
</g>
</svg>
