<?xml version="1.0" encoding="utf-8"?>
<!-- Generator: Adobe Illustrator 22.1.0, SVG Export Plug-In . SVG Version: 6.00 Build 0)  -->
<svg version="1.1" id="Layer_1" xmlns="http://www.w3.org/2000/svg" xmlns:xlink="http://www.w3.org/1999/xlink" x="0px" y="0px"
	 viewBox="0 0 100 125" style="enable-background:new 0 0 100 125;" xml:space="preserve">
<style type="text/css">
	.st0{fill:#FFFFFF;}
</style>
<path class="st0" d="M85.4,31.3L83.3,7.2C83.2,5.8,82.5,5,81.1,5C79.8,5,79,5.9,79,7.2v20.2c0,1.4-0.9,2.3-2.3,2.3h-0.1
	c-1.4,0-2.3-0.9-2.3-2.3V7.2C74.2,5.9,73.4,5,72,5c-1.3,0-2.2,0.9-2.2,2.2l0,20.2c0,1.4-0.9,2.3-2.3,2.3h-0.1
	c-1.4,0-2.3-0.9-2.3-2.3V7.2c0-1.3-0.9-2.2-2.2-2.2c-1.3,0-2,0.8-2.2,2.2l-2.1,24.2c-0.6,6.6,2.6,11.9,8.8,13.4l-3.9,41.9
	C63.2,92.1,67,95,72,95s8.8-2.9,8.5-8.4l-3.9-41.9C82.8,43.3,86,37.9,85.4,31.3z"/>
<path class="st0" d="M34.6,44.7l3.9,41.9c0.3,5.5-3.4,8.4-8.5,8.4s-8.8-2.9-8.5-8.4l3.9-41.9c-5.4-2.2-10.9-8.6-10.9-19
	C14.5,14.5,21.3,5,30,5s15.5,9.5,15.5,20.7C45.6,36.1,40,42.5,34.6,44.7z"/>
</svg>
