<?xml version="1.0" encoding="utf-8"?>
<!-- Generator: Adobe Illustrator 22.1.0, SVG Export Plug-In . SVG Version: 6.00 Build 0)  -->
<svg version="1.1" id="Layer_1" xmlns="http://www.w3.org/2000/svg" xmlns:xlink="http://www.w3.org/1999/xlink" x="0px" y="0px"
	 viewBox="0 0 841.9 595.3" style="enable-background:new 0 0 841.9 595.3;" xml:space="preserve">
<style type="text/css">
	.st0{fill:#729F98;}
</style>
<g>
	<path d="M-37421.2-595.6c-376.6,0-683,306.4-683,683c0,376.6,306.4,683,683,683c376.6,0,683-306.4,683-683
		C-36738.2-289.2-37044.6-595.6-37421.2-595.6z M-37423.9-306.4c119.1,0,215.7,96.6,215.7,215.7c0,119.1-96.6,215.7-215.7,215.7
		c-119.1,0-215.7-96.6-215.7-215.7C-37639.6-209.8-37543-306.4-37423.9-306.4z M-37039.2,566.6c-104.9,83.8-237.6,134.1-382,134.1
		c-144.2,0-276.9-50.1-381.7-133.7c9.7-172.9,123.5-347.5,262.8-347.5h238c139.5,0,253.6,168.3,262.9,341.4c0,0,0,0,0,0.1
		C-37039.2,561-37039.2,564.1-37039.2,566.6z"/>
</g>
<g>
	<circle class="st0" cx="431.8" cy="265.7" r="68"/>
	<path class="st0" d="M430.9,91.2c-118.5,0-215,96.4-215,215c0,118.5,96.4,215,215,215c118.5,0,215-96.4,215-215
		C645.9,187.6,549.5,91.2,430.9,91.2z M549.1,459.3c-2.3-53.6-37.6-105.6-80.8-105.6h-73c-43.5,0-79,52.9-80.8,106.9
		c-46.8-35.4-77.1-91.4-77.1-154.5c0-106.7,86.8-193.6,193.6-193.6c106.7,0,193.6,86.8,193.6,193.6
		C624.5,368.4,594.9,423.9,549.1,459.3z"/>
</g>
</svg>
