<?xml version="1.0" encoding="utf-8"?>
<!-- Generator: Adobe Illustrator 16.0.0, SVG Export Plug-In . SVG Version: 6.00 Build 0)  -->
<!DOCTYPE svg PUBLIC "-//W3C//DTD SVG 1.1//EN" "http://www.w3.org/Graphics/SVG/1.1/DTD/svg11.dtd">
<svg version="1.1" id="Layer_1" xmlns="http://www.w3.org/2000/svg" xmlns:xlink="http://www.w3.org/1999/xlink" x="0px" y="0px"
	 width="841.889px" height="595.281px" viewBox="0 0 841.889 595.281" enable-background="new 0 0 841.889 595.281"
	 xml:space="preserve">
<g>
	<path d="M-37421.219-595.631c-376.598,0-683,306.384-683,682.978c0,376.619,306.402,683.011,683,683.011
		c376.602,0,682.988-306.4,682.988-683.011C-36738.23-289.247-37044.617-595.631-37421.219-595.631z M-37423.891-306.392
		c119.137,0,215.695,96.584,215.695,215.694c0,119.128-96.582,215.693-215.695,215.693c-119.148,0-215.695-96.584-215.695-215.693
		C-37639.594-209.808-37543.035-306.392-37423.891-306.392z M-37039.184,566.635c-104.855,83.828-237.645,134.062-382.035,134.062
		c-144.211,0-276.871-50.067-381.684-133.694c9.719-172.854,123.531-347.458,262.777-347.458h237.996
		c139.527,0,253.633,168.266,262.938,341.389c0.008,0.018,0.008,0.035,0.008,0.053
		C-37039.184,561.002-37039.184,564.128-37039.184,566.635z"/>
</g>
<g>
	<circle fill="#85AAA3" cx="431.793" cy="265.738" r="67.979"/>
	<path fill="#85AAA3" d="M430.941,91.153c-118.526,0-214.963,96.428-214.963,214.955c0,118.536,96.427,214.972,214.963,214.972
		c118.535,0,214.963-96.428,214.963-214.972C645.904,187.581,549.476,91.153,430.941,91.153z M549.102,459.291
		c-2.343-53.604-37.6-105.621-80.789-105.621h-73.028c-43.538,0-79.014,52.862-80.833,106.92
		c-46.785-35.37-77.088-91.447-77.088-154.489c0-106.737,86.85-193.569,193.577-193.569c106.745,0,193.577,86.841,193.577,193.569
		C624.527,368.393,594.929,423.851,549.102,459.291z"/>
</g>
</svg>
