<?xml version="1.0" encoding="utf-8"?>
<!-- Generator: Adobe Illustrator 22.1.0, SVG Export Plug-In . SVG Version: 6.00 Build 0)  -->
<svg version="1.1" id="Layer_1" xmlns="http://www.w3.org/2000/svg" xmlns:xlink="http://www.w3.org/1999/xlink" x="0px" y="0px"
	 viewBox="0 0 431 430" style="enable-background:new 0 0 431 430;" xml:space="preserve">
<style type="text/css">
	.st0{fill:#729F98;}
</style>
<g>
	<path d="M-37637.1-686.8c-376.6,0-683,306.4-683,683s306.4,683,683,683s683-306.4,683-683S-37260.5-686.8-37637.1-686.8z
		 M-37639.8-397.6c119.1,0,215.7,96.6,215.7,215.7s-96.6,215.7-215.7,215.7c-119.1,0-215.7-96.6-215.7-215.7
		C-37855.5-301-37758.9-397.6-37639.8-397.6z M-37255.1,475.4c-104.9,83.8-237.6,134.1-382,134.1c-144.2,0-276.9-50.1-381.7-133.7
		c9.7-172.9,123.5-347.5,262.8-347.5h238c139.5,0,253.6,168.3,262.9,341.4c0,0,0,0,0,0.1
		C-37255.1,469.8-37255.1,472.9-37255.1,475.4z"/>
</g>
<g>
	<circle class="st0" cx="215.9" cy="174.5" r="68"/>
	<path class="st0" d="M215,0C96.5,0,0,96.4,0,215c0,118.5,96.4,215,215,215c118.5,0,215-96.4,215-215S333.6,0,215,0z M333.2,368.1
		c-2.3-53.6-37.6-105.6-80.8-105.6h-73c-43.5,0-79,52.9-80.8,106.9C51.8,334,21.5,278,21.5,214.9c0-106.7,86.8-193.6,193.6-193.6
		c106.7,0,193.6,86.8,193.6,193.6C408.6,277.2,379,332.7,333.2,368.1z"/>
</g>
</svg>
