<?xml version="1.0" encoding="utf-8"?>
<!-- Generator: Adobe Illustrator 22.1.0, SVG Export Plug-In . SVG Version: 6.00 Build 0)  -->
<svg version="1.1" id="Layer_1" xmlns="http://www.w3.org/2000/svg" xmlns:xlink="http://www.w3.org/1999/xlink" x="0px" y="0px"
	 viewBox="0 0 100 125" style="enable-background:new 0 0 100 125;" xml:space="preserve">
<style type="text/css">
	.st0{fill:#FFFFFF;}
</style>
<g>
	<path class="st0" d="M50,8.7c-24.8,0-44.8,20-44.8,44.8S25.3,98.3,50,98.3c24.8,0,44.8-20.1,44.8-44.8C94.8,28.7,74.8,8.7,50,8.7z
		 M50,25.5c4.9,0,9.6,1.3,13.6,3.5L25.5,67.1c-2.2-4-3.5-8.7-3.5-13.6C22,38,34.5,25.5,50,25.5z M50,81.5c-4.9,0-9.6-1.3-13.6-3.5
		l38.1-38.1c2.2,4,3.5,8.7,3.5,13.6C78,69,65.5,81.5,50,81.5z"/>
</g>
</svg>
