<?xml version="1.0" encoding="utf-8"?>
<!-- Generator: Adobe Illustrator 22.1.0, SVG Export Plug-In . SVG Version: 6.00 Build 0)  -->
<svg version="1.1" id="Layer_1" xmlns="http://www.w3.org/2000/svg" xmlns:xlink="http://www.w3.org/1999/xlink" x="0px" y="0px"
	 viewBox="0 0 24 30" style="enable-background:new 0 0 24 30;" xml:space="preserve">
<style type="text/css">
	.st0{fill:#FFFFFF;}
</style>
<g>
	<path class="st0" d="M15.8,14.9c-0.1,0-0.3,0-0.4-0.1l-3.8-1.9c-0.3-0.2-0.5-0.5-0.5-0.8V5.5c0-0.5,0.4-0.9,0.9-0.9
		s0.9,0.4,0.9,0.9v6l3.2,1.6c0.5,0.2,0.7,0.8,0.4,1.3C16.4,14.7,16.1,14.9,15.8,14.9z M12,23.4c-6.2,0-11.3-5.1-11.3-11.3
		S5.8,0.8,12,0.8s11.3,5.1,11.3,11.3S18.2,23.4,12,23.4z M12,2.7c-5.2,0-9.4,4.2-9.4,9.4s4.2,9.4,9.4,9.4s9.4-4.2,9.4-9.4
		S17.2,2.7,12,2.7z"/>
</g>
</svg>
