<?xml version="1.0" encoding="utf-8"?>
<!-- Generator: Adobe Illustrator 22.1.0, SVG Export Plug-In . SVG Version: 6.00 Build 0)  -->
<svg version="1.1" id="Layer_1" xmlns="http://www.w3.org/2000/svg" xmlns:xlink="http://www.w3.org/1999/xlink" x="0px" y="0px"
	 viewBox="0 0 100 125" style="enable-background:new 0 0 100 125;" xml:space="preserve">
<path d="M17.2,40.6c0,1.4,1.1,2.5,2.5,2.5h2.7l4.8,62.7c0,0.1,0,0.1,0,0.2s0,0.2,0,0.2c0,0.1,0,0.2,0.1,0.2c0,0.1,0,0.1,0.1,0.2
	c0,0.1,0.1,0.2,0.1,0.2c0,0.1,0.1,0.1,0.1,0.2c0.1,0.1,0.1,0.1,0.2,0.2c0,0.1,0.1,0.1,0.1,0.2c0.1,0.1,0.1,0.1,0.2,0.2
	c0.1,0,0.1,0.1,0.2,0.1s0.2,0.1,0.2,0.1c0.1,0,0.1,0.1,0.2,0.1s0.2,0.1,0.3,0.1c0.1,0,0.1,0,0.2,0c0.2,0,0.3,0,0.5,0l0,0l0,0h40l0,0
	l0,0c0.2,0,0.3,0,0.5,0c0.1,0,0.1,0,0.2,0s0.2-0.1,0.3-0.1c0.1,0,0.1-0.1,0.2-0.1s0.2-0.1,0.2-0.1c0.1,0,0.1-0.1,0.2-0.1
	c0.1-0.1,0.1-0.1,0.2-0.2c0.1,0,0.1-0.1,0.1-0.2c0.1-0.1,0.1-0.1,0.2-0.2c0-0.1,0.1-0.1,0.1-0.2s0.1-0.1,0.1-0.2s0.1-0.1,0.1-0.2
	s0.1-0.2,0.1-0.2c0-0.1,0-0.2,0-0.2c0-0.1,0-0.1,0-0.2L77,43.1h2.7c1.4,0,2.5-1.1,2.5-2.5c0-1.4-1.1-2.5-2.5-2.5h-60
	C18.3,38.1,17.2,39.2,17.2,40.6z M64.6,43.1H72l-4.6,60h-5.1L64.6,43.1z M52.2,43.1h7.4l-2.3,60h-5.1
	C52.2,103.1,52.2,43.1,52.2,43.1z M47.2,43.1v60h-5.1l-2.3-60H47.2z M34.8,43.1l2.3,60H32l-4.6-60H34.8z"/>
<path d="M22.2,33.1c0,1.4,1.1,2.5,2.5,2.5h50c1.4,0,2.5-1.1,2.5-2.5c0-1.4-1.1-2.5-2.5-2.5H62.2c0-6.9-5.6-12.5-12.5-12.5
	s-12.5,5.6-12.5,12.5H24.7C23.3,30.6,22.2,31.7,22.2,33.1z M49.7,23.1c4.1,0,7.5,3.4,7.5,7.5h-15C42.2,26.5,45.6,23.1,49.7,23.1z"/>
</svg>
